<svg width="392" height="812" viewBox="0 0 392 812" fill="none" xmlns="http://www.w3.org/2000/svg">
<path fill-rule="evenodd" clip-rule="evenodd" d="M13.5795 529.531C-18.9953 445.75 16.0099 357.744 46.9395 282.145C71.9867 220.923 126.787 190.629 170.554 145.846C215.048 100.32 246.945 40.5397 305.107 17.9901C377.593 -10.113 467.798 -52.2952 536.242 4.06806C605.759 61.315 585.956 177.009 608.07 267.478C624.577 335.006 646.067 398.078 649.196 466.161C653.099 551.063 670.422 644.947 628.381 709.306C583.608 777.848 503.9 814.417 423.463 811.727C345.482 809.119 277.872 743.646 207.552 695.232C136.916 646.601 46.3492 613.813 13.5795 529.531Z" fill="#FF7058" fill-opacity="0.05"/>
</svg>
